<?xml version="1.0" encoding="UTF-8"?>
<svg width="102px" height="90px" viewBox="0 0 102 90" version="1.1" xmlns="http://www.w3.org/2000/svg" xmlns:xlink="http://www.w3.org/1999/xlink">
    <!-- Generator: Sketch 40.3 (33839) - http://www.bohemiancoding.com/sketch -->
    <title>school</title>
    <desc>Created with Sketch.</desc>
    <defs></defs>
    <g id="Page-1" stroke="none" stroke-width="1" fill="none" fill-rule="evenodd">
        <g id="Student-Main-Login-Screen" transform="translate(-734.000000, -299.000000)">
            <g id="school" transform="translate(734.000000, 299.000000)">
                <path d="M93.6690703,29.2102232 C93.066832,28.1910937 91.6123359,27.3571875 90.4363477,27.3571875 L11.5640508,27.3571875 C10.3876641,27.3571875 8.93257031,28.1910937 8.33092969,29.2102232 L2.16471094,39.6516295 C1.56287109,40.6707589 2.03262891,41.5046652 3.20881641,41.5046652 L98.7905859,41.5046652 C99.9667734,41.5046652 100.43693,40.6707589 99.8350898,39.6516295 L93.6690703,29.2102232 L93.6690703,29.2102232 Z" id="Shape" fill="#00B3E3"></path>
                <path d="M4.77029297,35.2394196 L43.370918,35.2394196 L43.370918,31.9477902 L6.71426953,31.9477902 L4.77029297,35.2394196 L4.77029297,35.2394196 Z M95.2857305,31.9477902 L58.1898047,31.9477902 L58.1898047,35.2394196 L97.2295078,35.2394196 L95.2857305,31.9477902 L95.2857305,31.9477902 Z" id="Shape" fill="#000000" opacity="0.1"></path>
                <polygon id="Shape" fill="#D1D3D3" points="61.8936797 40.9779241 50.7798633 22.9901786 39.6660469 40.9779241 2.36153906 40.9779241 2.36153906 84.5007589 99.1977891 84.5007589 99.1977891 40.9779241"></polygon>
                <path d="M65.3694492,43.316317 C64.5620156,43.316317 63.5507812,42.7516071 63.1222617,42.061942 L62.4485039,40.978125 L61.8932812,40.978125 L51.5364961,24.215625 C51.0424336,23.990625 50.5162969,23.9908259 50.0222344,24.2160268 L39.6658477,40.978125 L39.1120195,40.978125 L38.4382617,42.061942 C38.009543,42.751808 36.9983086,43.316317 36.190875,43.316317 L2.36153906,43.316317 L2.36153906,49.1000223 L38.0133281,49.1000223 C38.8207617,49.1000223 39.8130703,48.5242634 40.2188789,47.8201339 L48.9247383,34.3779911 C49.9451367,32.6223884 51.6155859,32.6223884 52.6359844,34.3779911 L61.3418437,47.8201339 C61.7476523,48.5240625 62.7399609,49.1000223 63.5473945,49.1000223 L99.1975898,49.1000223 L99.1975898,43.316317 L65.3694492,43.316317 L65.3694492,43.316317 Z" id="Shape" fill="#000000" opacity="0.1"></path>
                <rect id="Rectangle-path" fill="#A4A9AD" x="89.7926719" y="50.1362277" width="9.40531641" height="4.56408482"></rect>
                <rect id="Rectangle-path" fill="#A4A9AD" x="61.5809063" y="59.5854241" width="9.40531641" height="4.56388393"></rect>
                <rect id="Rectangle-path" fill="#A4A9AD" x="78.6137109" y="75.7870313" width="9.40531641" height="4.56388393"></rect>
                <rect id="Rectangle-path" fill="#A4A9AD" x="29.7959531" y="76.9984152" width="9.40531641" height="4.56408482"></rect>
                <rect id="Rectangle-path" fill="#A4A9AD" x="2.36153906" y="54.5185045" width="9.40531641" height="4.56408482"></rect>
                <rect id="Rectangle-path" fill="#A4A9AD" x="25.0931953" y="45.0715179" width="9.40531641" height="4.56388393"></rect>
                <rect id="Rectangle-path" fill="#333E48" x="42.7027383" y="62.0915625" width="16.1558437" height="22.4095982"></rect>
                <rect id="Rectangle-path" fill="#000000" opacity="0.1" x="42.7027383" y="62.0915625" width="16.1558437" height="2.83238839"></rect>
                <rect id="Rectangle-path" fill="#FFFFFF" x="45.7842539" y="67.2770089" width="3.26419922" height="6.2015625"></rect>
                <rect id="Rectangle-path" fill="#FFFFFF" x="52.5106758" y="67.2770089" width="3.26419922" height="6.2015625"></rect>
                <rect id="Rectangle-path" fill="#FFFFFF" x="25.8113789" y="58.3127679" width="9.49516406" height="13.1733482"></rect>
                <rect id="Rectangle-path" fill="#000000" opacity="0.2" x="25.8113789" y="58.3127679" width="9.49516406" height="2.90491071"></rect>
                <rect id="Rectangle-path" fill="#A93439" x="25.8113789" y="63.2545312" width="9.49516406" height="3.29162946"></rect>
                <path d="M35.3077383,73.1336384 L25.8125742,73.1336384 C24.9113086,73.1336384 24.180375,72.3967634 24.180375,71.4877232 L24.180375,58.3137723 C24.180375,57.4047321 24.9111094,56.6678571 25.8125742,56.6678571 L35.3077383,56.6678571 C36.2090039,56.6678571 36.9399375,57.4047321 36.9399375,58.3137723 L36.9399375,71.4877232 C36.9399375,72.3965625 36.2090039,73.1336384 35.3077383,73.1336384 L35.3077383,73.1336384 Z M27.444375,69.841808 L33.6753398,69.841808 L33.6753398,59.9594866 L27.444375,59.9594866 L27.444375,69.841808 L27.444375,69.841808 Z" id="Shape" fill="#FF5959"></path>
                <rect id="Rectangle-path" fill="#FFFFFF" x="7.38563672" y="58.3127679" width="9.49516406" height="13.1733482"></rect>
                <rect id="Rectangle-path" fill="#000000" opacity="0.2" x="7.38563672" y="58.3127679" width="9.49516406" height="2.90491071"></rect>
                <rect id="Rectangle-path" fill="#A93439" x="7.38563672" y="63.2545312" width="9.49516406" height="3.29162946"></rect>
                <path d="M16.8811992,73.1336384 L7.38563672,73.1336384 C6.48437109,73.1336384 5.7534375,72.3967634 5.7534375,71.4877232 L5.7534375,58.3137723 C5.7534375,57.4047321 6.48417188,56.6678571 7.38563672,56.6678571 L16.8808008,56.6678571 C17.7820664,56.6678571 18.513,57.4047321 18.513,58.3137723 L18.513,71.4877232 C18.5131992,72.3965625 17.7824648,73.1336384 16.8811992,73.1336384 L16.8811992,73.1336384 Z M9.01783594,69.841808 L15.2488008,69.841808 L15.2488008,59.9594866 L9.01783594,59.9594866 L9.01783594,69.841808 L9.01783594,69.841808 Z" id="Shape" fill="#FF5959"></path>
                <rect id="Rectangle-path" fill="#FFFFFF" x="66.2531836" y="58.3127679" width="9.49516406" height="13.1733482"></rect>
                <rect id="Rectangle-path" fill="#000000" opacity="0.2" x="66.2531836" y="58.3127679" width="9.49516406" height="2.90491071"></rect>
                <rect id="Rectangle-path" fill="#A93439" x="66.2531836" y="63.2545312" width="9.49516406" height="3.29162946"></rect>
                <path d="M75.7485469,73.1336384 L66.2533828,73.1336384 C65.3521172,73.1336384 64.6211836,72.3967634 64.6211836,71.4877232 L64.6211836,58.3137723 C64.6211836,57.4047321 65.351918,56.6678571 66.2533828,56.6678571 L75.7485469,56.6678571 C76.6500117,56.6678571 77.3807461,57.4047321 77.3807461,58.3137723 L77.3807461,71.4877232 C77.3807461,72.3965625 76.6500117,73.1336384 75.7485469,73.1336384 L75.7485469,73.1336384 Z M67.8853828,69.841808 L74.1163477,69.841808 L74.1163477,59.9594866 L67.8853828,59.9594866 L67.8853828,69.841808 L67.8853828,69.841808 Z" id="Shape" fill="#FF5959"></path>
                <rect id="Rectangle-path" fill="#FFFFFF" x="84.6787266" y="58.3127679" width="9.49516406" height="13.1733482"></rect>
                <rect id="Rectangle-path" fill="#000000" opacity="0.2" x="84.6787266" y="58.3127679" width="9.49516406" height="2.90491071"></rect>
                <rect id="Rectangle-path" fill="#A93439" x="84.6787266" y="63.2545312" width="9.49516406" height="3.29162946"></rect>
                <path d="M94.1752852,73.1336384 L84.6799219,73.1336384 C83.778457,73.1336384 83.0477227,72.3967634 83.0477227,71.4877232 L83.0477227,58.3137723 C83.0477227,57.4047321 83.778457,56.6678571 84.6799219,56.6678571 L94.1750859,56.6678571 C95.0763516,56.6678571 95.8072852,57.4047321 95.8072852,58.3137723 L95.8072852,71.4877232 C95.8072852,72.3965625 95.0765508,73.1336384 94.1752852,73.1336384 L94.1752852,73.1336384 Z M86.3119219,69.841808 L92.5428867,69.841808 L92.5428867,59.9594866 L86.3119219,59.9594866 L86.3119219,69.841808 L86.3119219,69.841808 Z" id="Shape" fill="#FF5959"></path>
                <rect id="Rectangle-path" fill="#FFB819" x="50.7806602" y="3.30890625" width="18.8520703" height="10.895625"></rect>
                <rect id="Rectangle-path" fill="#000000" opacity="0.1" x="50.7806602" y="3.30890625" width="4.93544531" height="10.895625"></rect>
                <path d="M50.7802617,24.6360938 C49.8787969,24.6360938 49.1480625,23.8992188 49.1480625,22.9901786 L49.1480625,1.7971875 C49.1480625,0.888348214 49.8787969,0.151272321 50.7802617,0.151272321 C51.6815273,0.151272321 52.4124609,0.888147321 52.4124609,1.7971875 L52.4124609,22.9901786 C52.4122617,23.8992188 51.6815273,24.6360938 50.7802617,24.6360938 L50.7802617,24.6360938 Z" id="Shape" fill="#333E48"></path>
                <path d="M52.7292188,21.3119196 C51.6574219,19.5874554 49.9035,19.5874554 48.8317031,21.3119196 L38.4386602,38.0356473 C38.0099414,38.7253125 36.998707,39.2898214 36.1912734,39.2898214 L1.46784375,39.2898214 C0.660609375,39.2898214 0,39.9557813 0,40.77 L0,43.5933482 C0,44.4073661 0.660609375,45.0735268 1.46784375,45.0735268 L38.0133281,45.0735268 C38.8207617,45.0735268 39.8130703,44.4977679 40.2188789,43.7940402 L48.9247383,30.3518973 C49.9451367,28.5960938 51.6155859,28.5960938 52.6359844,30.3518973 L61.3418437,43.7940402 C61.7476523,44.4977679 62.7399609,45.0735268 63.5473945,45.0735268 L100.092281,45.0735268 C100.899715,45.0735268 101.560324,44.4073661 101.560324,43.5933482 L101.560324,40.77 C101.560324,39.9559821 100.899715,39.2898214 100.092281,39.2898214 L65.3696484,39.2898214 C64.5622148,39.2898214 63.5509805,38.7253125 63.1224609,38.0356473 L52.7292188,21.3119196 L52.7292188,21.3119196 Z" id="Shape" fill="#0071CE"></path>
                <ellipse id="Oval" fill="#FFFFFF" cx="50.7806602" cy="50.1362277" rx="7.40974219" ry="7.47200893"></ellipse>
                <path d="M53.6185312,48.4903125 L52.4124609,48.4903125 L52.4124609,47.2741071 C52.4124609,46.3652679 51.6817266,45.628192 50.7802617,45.628192 C49.8787969,45.628192 49.1480625,46.365067 49.1480625,47.2741071 L49.1480625,50.1360268 C49.1480625,51.045067 49.8787969,51.781942 50.7802617,51.781942 L53.618332,51.781942 C54.5197969,51.781942 55.2505312,51.045067 55.2505312,50.1360268 C55.2505312,49.2269866 54.5199961,48.4903125 53.6185312,48.4903125 L53.6185312,48.4903125 Z" id="Shape" fill="#333E48"></path>
                <path d="M102,88.5597991 C102,89.0473661 101.604551,89.4463393 101.121047,89.4463393 L0.879152344,89.4463393 C0.395648438,89.4463393 0,89.0473661 0,88.5597991 L0,85.3872991 C0,84.8997321 0.395648438,84.5007589 0.879152344,84.5007589 L101.121047,84.5007589 C101.604551,84.5007589 102,84.8997321 102,85.3872991 L102,88.5597991 L102,88.5597991 Z" id="Shape" fill="#00AD68"></path>
                <rect id="Rectangle-path" fill="#A4A9AD" x="37.8346289" y="84.5011607" width="26.3293477" height="4.94558036"></rect>
                <path d="M96.8667305,84.5007589 C96.8667305,80.3575446 93.5361914,76.9990179 89.4275039,76.9990179 C85.3188164,76.9990179 81.9882773,80.3575446 81.9882773,84.5007589 L96.8667305,84.5007589 L96.8667305,84.5007589 Z" id="Shape" fill="#218649"></path>
                <path d="M24.3202266,84.5007589 C24.3202266,80.3575446 20.9896875,76.9990179 16.881,76.9990179 C12.7723125,76.9990179 9.44177344,80.3575446 9.44177344,84.5007589 L24.3202266,84.5007589 L24.3202266,84.5007589 Z" id="Shape" fill="#218649"></path>
            </g>
        </g>
    </g>
</svg>