<?xml version="1.0" encoding="UTF-8"?>
<svg width="102px" height="54px" viewBox="0 0 102 54" version="1.1" xmlns="http://www.w3.org/2000/svg" xmlns:xlink="http://www.w3.org/1999/xlink">
    <!-- Generator: Sketch 40.3 (33839) - http://www.bohemiancoding.com/sketch -->
    <title>school-bus</title>
    <desc>Created with Sketch.</desc>
    <defs></defs>
    <g id="Page-1" stroke="none" stroke-width="1" fill="none" fill-rule="evenodd">
        <g id="Student-Main-Login-Screen" transform="translate(-528.000000, -335.000000)">
            <g id="school-bus" transform="translate(528.000000, 335.000000)">
                <path d="M90.4819687,19.9623309 L73.1644805,19.9623309 L73.1644805,19.9623309 L69.727957,15.7870588 L73.1644805,10.5867794 L73.1644805,4.50761029 C73.1644805,2.10659559 71.1932109,0.141948529 68.7836602,0.141948529 L7.159125,0.141948529 C4.74977344,0.141948529 2.77830469,2.10639706 2.77830469,4.50761029 L2.77830469,40.1714338 C2.77830469,42.5724485 4.74957422,44.5370956 7.159125,44.5370956 L99.1276641,44.5370956 L99.1276641,28.5783088 C99.1276641,23.8197574 95.2568437,19.9623309 90.4819687,19.9623309 L90.4819687,19.9623309 Z" id="Shape" fill="#FFB819"></path>
                <rect id="Rectangle-path" fill="#333E48" x="2.77830469" y="4.91797059" width="70.386375" height="3.27414706"></rect>
                <path d="M73.1644805,27.1159412 L8.17553906,27.1159412 C7.26809766,27.1159412 6.53278125,26.3829706 6.53278125,25.4788676 C6.53278125,24.5747647 7.26809766,23.8417941 8.17553906,23.8417941 L73.1644805,23.8417941 C74.0719219,23.8417941 74.8072383,24.5747647 74.8072383,25.4788676 C74.8072383,26.3829706 74.0719219,27.1159412 73.1644805,27.1159412 L73.1644805,27.1159412 Z" id="Shape" fill="#333E48"></path>
                <path d="M73.1644805,31.991625 L8.17553906,31.991625 C7.26809766,31.991625 6.53278125,31.2586544 6.53278125,30.3545515 C6.53278125,29.4504485 7.26809766,28.7174779 8.17553906,28.7174779 L73.1644805,28.7174779 C74.0719219,28.7174779 74.8072383,29.4504485 74.8072383,30.3545515 C74.8072383,31.2586544 74.0719219,31.991625 73.1644805,31.991625 L73.1644805,31.991625 Z" id="Shape" fill="#333E48"></path>
                <path d="M8.17553906,45.2827721 C8.17553906,46.1231471 7.48564453,46.8106544 6.64235156,46.8106544 L1.5331875,46.8106544 C0.689894531,46.8106544 0,46.1231471 0,45.2827721 L0,41.2933235 C0,40.4529485 0.689894531,39.7654412 1.5331875,39.7654412 L6.64215234,39.7654412 C7.48544531,39.7654412 8.17533984,40.4529485 8.17533984,41.2933235 C8.17553906,41.2933235 8.17553906,45.2827721 8.17553906,45.2827721 L8.17553906,45.2827721 Z" id="Shape" fill="#333E48"></path>
                <path d="M102,45.2827721 C102,46.1231471 101.310105,46.8106544 100.466812,46.8106544 L96.0214453,46.8106544 C95.1781523,46.8106544 94.4882578,46.1231471 94.4882578,45.2827721 L94.4882578,41.2933235 C94.4882578,40.4529485 95.1781523,39.7654412 96.0214453,39.7654412 L100.466812,39.7654412 C101.310105,39.7654412 102,40.4529485 102,41.2933235 L102,45.2827721 L102,45.2827721 Z" id="Shape" fill="#333E48"></path>
                <path d="M86.4073477,44.5368971 C86.4073477,38.4491912 81.4559648,33.5145441 75.3469219,33.5145441 C69.2380781,33.5145441 64.2864961,38.4491912 64.2864961,44.5368971 L86.4073477,44.5368971 L86.4073477,44.5368971 Z" id="Shape" fill="#000000" opacity="0.2"></path>
                <ellipse id="Oval" fill="#333E48" cx="75.3477188" cy="44.5363015" rx="9.35431641" ry="9.32194853"></ellipse>
                <ellipse id="Oval" fill="#D1D3D3" cx="75.3477188" cy="44.5363015" rx="4.30033594" ry="4.28545588"></ellipse>
                <path d="M34.4271914,44.5368971 C34.4271914,38.4491912 29.4758086,33.5145441 23.3667656,33.5145441 C17.2579219,33.5145441 12.3063398,38.4491912 12.3063398,44.5368971 L34.4271914,44.5368971 L34.4271914,44.5368971 Z" id="Shape" fill="#000000" opacity="0.2"></path>
                <ellipse id="Oval" fill="#333E48" cx="23.3671641" cy="44.5363015" rx="9.35411719" ry="9.32175"></ellipse>
                <ellipse id="Oval" fill="#D1D3D3" cx="23.3671641" cy="44.5363015" rx="4.30033594" ry="4.28545588"></ellipse>
                <path d="M22.4621133,18.8708162 C22.4621133,19.4711691 21.9692461,19.9621324 21.3670078,19.9621324 L9.27064453,19.9621324 C8.66820703,19.9621324 8.17553906,19.4709706 8.17553906,18.8708162 L8.17553906,11.6776985 C8.17553906,11.0773456 8.66840625,10.5863824 9.27064453,10.5863824 L21.3670078,10.5863824 C21.9694453,10.5863824 22.4621133,11.0775441 22.4621133,11.6776985 C22.4621133,11.6776985 22.4621133,18.8708162 22.4621133,18.8708162 L22.4621133,18.8708162 Z" id="Shape" fill="#00B3E3"></path>
                <path d="M41.2414687,18.8708162 C41.2414687,19.4711691 40.7486016,19.9621324 40.1463633,19.9621324 L28.0498008,19.9621324 C27.4473633,19.9621324 26.9546953,19.4709706 26.9546953,18.8708162 L26.9546953,11.6776985 C26.9546953,11.0773456 27.4475625,10.5863824 28.0498008,10.5863824 L40.1463633,10.5863824 C40.7488008,10.5863824 41.2414687,11.0775441 41.2414687,11.6776985 L41.2414687,18.8708162 L41.2414687,18.8708162 L41.2414687,18.8708162 Z" id="Shape" fill="#00B3E3"></path>
                <path d="M40.1463633,10.5865809 L28.0498008,10.5865809 C27.4473633,10.5865809 26.9546953,11.0777426 26.9546953,11.6778971 L26.9546953,13.5333529 C26.9546953,12.933 27.4475625,12.4420368 28.0498008,12.4420368 L40.1463633,12.4420368 C40.7488008,12.4420368 41.2414687,12.9331985 41.2414687,13.5333529 L41.2414687,11.6778971 C41.2414687,11.0777426 40.7486016,10.5865809 40.1463633,10.5865809 L40.1463633,10.5865809 Z" id="Shape" fill="#000000" opacity="0.2"></path>
                <path d="M60.0214219,43.4455809 C60.0214219,44.0459338 59.5285547,44.5368971 58.9263164,44.5368971 L46.8293555,44.5368971 C46.226918,44.5368971 45.73425,44.0457353 45.73425,43.4455809 L45.73425,11.6780956 C45.73425,11.0777426 46.2271172,10.5867794 46.8293555,10.5867794 L58.9263164,10.5867794 C59.5287539,10.5867794 60.0214219,11.0779412 60.0214219,11.6780956 L60.0214219,43.4455809 L60.0214219,43.4455809 Z" id="Shape" fill="#D68231"></path>
                <path d="M58.9261172,10.5865809 L46.8291562,10.5865809 C46.2267187,10.5865809 45.7340508,11.0777426 45.7340508,11.6778971 L45.7340508,13.5333529 C45.7340508,12.933 46.226918,12.4420368 46.8291562,12.4420368 L58.9261172,12.4420368 C59.5285547,12.4420368 60.0212227,12.9331985 60.0212227,13.5333529 L60.0212227,11.6778971 C60.0214219,11.0777426 59.5285547,10.5865809 58.9261172,10.5865809 L58.9261172,10.5865809 Z" id="Shape" fill="#000000" opacity="0.2"></path>
                <path d="M73.1644805,19.9623309 L65.6091094,19.9623309 C65.0066719,19.9623309 64.5140039,19.4711691 64.5140039,18.8710147 L64.5140039,11.6778971 C64.5140039,11.0775441 65.0068711,10.5865809 65.6091094,10.5865809 L73.1644805,10.5865809 L73.1644805,19.9623309 L73.1644805,19.9623309 Z" id="Shape" fill="#00B3E3"></path>
                <path d="M21.3670078,10.5865809 L9.27064453,10.5865809 C8.66820703,10.5865809 8.17553906,11.0777426 8.17553906,11.6778971 L8.17553906,13.5333529 C8.17553906,12.933 8.66840625,12.4420368 9.27064453,12.4420368 L21.3670078,12.4420368 C21.9694453,12.4420368 22.4621133,12.9331985 22.4621133,13.5333529 L22.4621133,11.6778971 C22.4621133,11.0777426 21.9692461,10.5865809 21.3670078,10.5865809 L21.3670078,10.5865809 Z" id="Shape" fill="#000000" opacity="0.2"></path>
                <path d="M65.6091094,10.5865809 C65.0066719,10.5865809 64.5140039,11.0777426 64.5140039,11.6778971 L64.5140039,13.5333529 C64.5140039,12.933 65.0068711,12.4420368 65.6091094,12.4420368 L73.1644805,12.4420368 L73.1644805,10.5865809 L65.6091094,10.5865809 L65.6091094,10.5865809 Z" id="Shape" fill="#000000" opacity="0.2"></path>
                <path d="M50.3429766,35.4498088 C49.4355352,35.4498088 48.7002188,34.7168382 48.7002188,33.8127353 L48.7002188,27.9876838 C48.7002188,27.0835809 49.4355352,26.3506103 50.3429766,26.3506103 C51.250418,26.3506103 51.9857344,27.0835809 51.9857344,27.9876838 L51.9857344,33.8127353 C51.9857344,34.7170368 51.250418,35.4498088 50.3429766,35.4498088 L50.3429766,35.4498088 Z" id="Shape" fill="#FFFFFF"></path>
                <path d="M55.4124961,35.4498088 C54.5050547,35.4498088 53.7697383,34.7168382 53.7697383,33.8127353 L53.7697383,27.9876838 C53.7697383,27.0835809 54.5050547,26.3506103 55.4124961,26.3506103 C56.3199375,26.3506103 57.0552539,27.0835809 57.0552539,27.9876838 L57.0552539,33.8127353 C57.0554531,34.7170368 56.3197383,35.4498088 55.4124961,35.4498088 L55.4124961,35.4498088 Z" id="Shape" fill="#FFFFFF"></path>
                <path d="M50.3429766,23.2489853 C49.4355352,23.2489853 48.7002188,22.5160147 48.7002188,21.6119118 L48.7002188,15.7868603 C48.7002188,14.8827574 49.4355352,14.1497868 50.3429766,14.1497868 C51.250418,14.1497868 51.9857344,14.8827574 51.9857344,15.7868603 L51.9857344,21.6119118 C51.9857344,22.5162132 51.250418,23.2489853 50.3429766,23.2489853 L50.3429766,23.2489853 Z" id="Shape" fill="#FFFFFF"></path>
                <path d="M55.4124961,23.2489853 C54.5050547,23.2489853 53.7697383,22.5160147 53.7697383,21.6119118 L53.7697383,15.7868603 C53.7697383,14.8827574 54.5050547,14.1497868 55.4124961,14.1497868 C56.3199375,14.1497868 57.0552539,14.8827574 57.0552539,15.7868603 L57.0552539,21.6119118 C57.0554531,22.5162132 56.3197383,23.2489853 55.4124961,23.2489853 L55.4124961,23.2489853 Z" id="Shape" fill="#FFFFFF"></path>
                <rect id="Rectangle-path" fill="#00B3E3" x="91.2850195" y="34.4603382" width="7.84264453" height="5.30510294"></rect>
                <path d="M92.52675,39.7652426 L90.7228242,39.7652426 C90.3024727,39.7652426 89.9586211,39.4227794 89.9586211,39.0038824 L89.9586211,35.2216985 C89.9586211,34.8028015 90.3024727,34.4603382 90.7228242,34.4603382 L92.52675,34.4603382 L92.52675,39.7652426 L92.52675,39.7652426 Z" id="Shape" fill="#FFFFFF"></path>
            </g>
        </g>
    </g>
</svg>